<?xml version="1.0" standalone="no"?>
<!DOCTYPE svg PUBLIC "-//W3C//DTD SVG 20010904//EN"
 "http://www.w3.org/TR/2001/REC-SVG-20010904/DTD/svg10.dtd">
<svg version="1.0" xmlns="http://www.w3.org/2000/svg"
 width="700.000000pt" height="700.000000pt" viewBox="0 0 700.000000 700.000000"
 preserveAspectRatio="xMidYMid meet">
<metadata>
Created by potrace 1.14, written by Peter Selinger 2001-2017
</metadata>
<g transform="translate(0.000000,700.000000) scale(0.100000,-0.100000)"
fill="#000000" stroke="none">
<path d="M1095 6985 c-301 -55 -534 -180 -738 -395 -137 -144 -234 -306 -295
-495 -66 -201 -62 -41 -62 -2595 0 -2554 -4 -2394 62 -2595 61 -189 158 -351
295 -495 179 -189 383 -308 645 -377 l103 -28 2350 -3 c2138 -3 2359 -1 2450
14 482 79 887 428 1034 891 65 205 61 44 61 2593 0 2550 4 2387 -62 2594 -146
462 -546 807 -1032 891 -78 13 -368 15 -2415 14 -1858 -1 -2340 -3 -2396 -14z
m2105 -1361 l0 -51 -106 -12 c-188 -21 -280 -64 -325 -153 -47 -91 -49 -139
-49 -969 l0 -779 48 6 c198 23 338 79 492 196 127 96 228 209 535 598 321 407
388 501 446 624 49 106 62 161 57 243 -8 138 -99 208 -305 235 l-83 11 0 51 0
51 650 0 650 0 0 -52 c0 -49 -2 -53 -27 -58 -145 -31 -318 -104 -435 -182
-135 -91 -239 -208 -736 -830 -264 -330 -486 -610 -493 -620 -11 -18 70 -139
732 -1099 799 -1159 819 -1185 959 -1267 36 -21 102 -52 148 -69 l82 -31 0
-51 0 -51 -745 0 -745 0 0 51 0 50 90 12 c50 7 109 20 131 28 72 29 96 85 65
157 -13 32 -845 1328 -980 1527 -98 146 -210 260 -286 294 -54 25 -184 56
-231 56 -19 0 -19 -20 -19 -857 1 -911 3 -961 48 -1050 50 -97 135 -133 370
-158 l62 -7 0 -51 0 -52 -830 0 -830 0 0 52 0 51 68 7 c114 12 214 34 261 57
63 32 97 80 123 173 l23 80 3 1665 c2 1085 -1 1698 -7 1760 -12 111 -32 183
-63 231 -42 62 -167 108 -340 124 l-68 7 0 51 0 52 830 0 830 0 0 -51z"/>
</g>
</svg>
