<svg width="32" height="32" viewBox="0 0 32 32" fill="none" xmlns="http://www.w3.org/2000/svg">
<path d="M8 20C8 19.4477 8.44772 19 9 19H23C23.5523 19 24 19.4477 24 20V26C24 27.6569 22.6569 29 21 29H11C9.34315 29 8 27.6569 8 26V20Z" stroke="#5B8F93" stroke-width="1.5"/>
<path d="M8 6C8 4.34315 9.34315 3 11 3H21C22.6569 3 24 4.34315 24 6V18C24 18.5523 23.5523 19 23 19H9C8.44772 19 8 18.5523 8 18V6Z" stroke="#5B8F93" stroke-width="1.5"/>
<path d="M13 16L11 16" stroke="#5B8F93" stroke-width="1.5" stroke-linecap="round"/>
<path d="M13 22L11 22" stroke="#5B8F93" stroke-width="1.5" stroke-linecap="round"/>
</svg>
