<svg width="120" height="32" viewBox="0 0 120 32" fill="none" xmlns="http://www.w3.org/2000/svg">
<path d="M17.9198 7.6761V8.2361C17.3225 8.32943 16.7251 8.5441 16.1278 8.8801C15.5491 9.19743 14.9611 9.72943 14.3638 10.4761L8.9878 17.1961L9.9398 15.4881L16.6598 25.2321C16.9585 25.6801 17.2758 26.0348 17.6118 26.2961C17.9665 26.5574 18.4145 26.7721 18.9558 26.9401V27.5001C18.4518 27.4628 17.8451 27.4441 17.1358 27.4441C16.4265 27.4254 15.8011 27.4161 15.2598 27.4161C14.9238 27.4161 14.5038 27.4254 13.9998 27.4441C13.5145 27.4441 12.8985 27.4628 12.1518 27.5001V26.9401C12.8425 26.9028 13.2625 26.7908 13.4118 26.6041C13.5798 26.4174 13.5145 26.1094 13.2158 25.6801L9.1558 19.3801C8.8198 18.8574 8.52113 18.4654 8.2598 18.2041C7.99846 17.9241 7.7278 17.7468 7.4478 17.6721C7.1678 17.5788 6.82246 17.5228 6.4118 17.5041V16.9161C7.1958 16.8974 7.8678 16.7201 8.4278 16.3841C9.00646 16.0481 9.5478 15.5908 10.0518 15.0121L12.3758 12.0721C13.0291 11.2694 13.4491 10.5881 13.6358 10.0281C13.8225 9.44943 13.7758 9.01076 13.4958 8.7121C13.2158 8.41343 12.6931 8.25476 11.9278 8.2361V7.6761C12.3198 7.69476 12.7025 7.71343 13.0758 7.7321C13.4678 7.7321 13.8598 7.74143 14.2518 7.7601C14.6625 7.7601 15.0638 7.7601 15.4558 7.7601C15.9598 7.7601 16.4171 7.75076 16.8278 7.7321C17.2571 7.71343 17.6211 7.69476 17.9198 7.6761ZM8.7358 7.6761V8.2361C8.1198 8.25476 7.65313 8.32943 7.3358 8.4601C7.01846 8.5721 6.8038 8.7961 6.6918 9.1321C6.5798 9.44943 6.5238 9.95343 6.5238 10.6441V24.5321C6.5238 25.2041 6.5798 25.7081 6.6918 26.0441C6.8038 26.3801 7.01846 26.6041 7.3358 26.7161C7.65313 26.8281 8.1198 26.9028 8.7358 26.9401V27.5001C8.2878 27.4628 7.71846 27.4441 7.0278 27.4441C6.3558 27.4254 5.66513 27.4161 4.9558 27.4161C4.1718 27.4161 3.43446 27.4254 2.7438 27.4441C2.0718 27.4441 1.52113 27.4628 1.0918 27.5001V26.9401C1.72646 26.9028 2.20246 26.8281 2.5198 26.7161C2.83713 26.6041 3.04246 26.3801 3.1358 26.0441C3.2478 25.7081 3.3038 25.2041 3.3038 24.5321V10.6441C3.3038 9.95343 3.2478 9.44943 3.1358 9.1321C3.04246 8.7961 2.8278 8.5721 2.4918 8.4601C2.17446 8.32943 1.7078 8.25476 1.0918 8.2361V7.6761C1.52113 7.69476 2.0718 7.71343 2.7438 7.7321C3.43446 7.75076 4.1718 7.7601 4.9558 7.7601C5.66513 7.7601 6.3558 7.75076 7.0278 7.7321C7.71846 7.71343 8.2878 7.69476 8.7358 7.6761Z" fill="#203136"/>
<path d="M27.0176 12.6601C28.6603 12.6601 29.9483 13.1548 30.8816 14.1441C31.8149 15.1334 32.2816 16.7014 32.2816 18.8481H22.6216L22.5656 18.3161H29.3136C29.3323 17.4014 29.2576 16.5614 29.0896 15.7961C28.9216 15.0121 28.6603 14.3868 28.3056 13.9201C27.9509 13.4534 27.4843 13.2201 26.9056 13.2201C26.1029 13.2201 25.4029 13.6494 24.8056 14.5081C24.2269 15.3481 23.8723 16.7014 23.7416 18.5681L23.8256 18.7081C23.8069 18.9694 23.7883 19.2588 23.7696 19.5761C23.7509 19.8748 23.7416 20.1734 23.7416 20.4721C23.7416 21.7601 23.9376 22.8428 24.3296 23.7201C24.7216 24.5974 25.2349 25.2601 25.8696 25.7081C26.5043 26.1374 27.1483 26.3521 27.8016 26.3521C28.3056 26.3521 28.7909 26.2774 29.2576 26.1281C29.7429 25.9601 30.2003 25.6894 30.6296 25.3161C31.0589 24.9241 31.4416 24.3921 31.7776 23.7201L32.3376 23.9441C32.1136 24.5788 31.7683 25.2041 31.3016 25.8201C30.8349 26.4361 30.2376 26.9401 29.5096 27.3321C28.7816 27.7054 27.9323 27.8921 26.9616 27.8921C25.6549 27.8921 24.5163 27.6028 23.5456 27.0241C22.5749 26.4268 21.8283 25.5774 21.3056 24.4761C20.7829 23.3748 20.5216 22.0681 20.5216 20.5561C20.5216 18.8948 20.7923 17.4761 21.3336 16.3001C21.8749 15.1241 22.6309 14.2281 23.6016 13.6121C24.5909 12.9774 25.7296 12.6601 27.0176 12.6601Z" fill="#203136"/>
<path d="M39.6703 8.4321V13.0801H43.5343V13.6401H39.6703V24.6441C39.6703 25.4094 39.8103 25.9508 40.0903 26.2681C40.3703 26.5854 40.7717 26.7441 41.2943 26.7441C41.7797 26.7441 42.209 26.5481 42.5823 26.1561C42.9743 25.7641 43.3103 25.1014 43.5903 24.1681L44.1223 24.3641C43.8983 25.3534 43.497 26.1934 42.9183 26.8841C42.3583 27.5561 41.5277 27.8921 40.4263 27.8921C39.7917 27.8921 39.2597 27.8081 38.8303 27.6401C38.401 27.4908 38.0277 27.2668 37.7103 26.9681C37.2997 26.5388 37.0197 26.0254 36.8703 25.4281C36.721 24.8308 36.6463 24.0374 36.6463 23.0481V13.6401H34.0703V13.0801H36.6463V8.9921C37.225 8.97343 37.7663 8.92676 38.2703 8.8521C38.7743 8.75876 39.241 8.61876 39.6703 8.4321Z" fill="#203136"/>
<path d="M52.1741 12.6601C53.4247 12.6601 54.5354 12.9214 55.5061 13.4441C56.4767 13.9668 57.2514 14.7881 57.8301 15.9081C58.4087 17.0281 58.6981 18.4934 58.6981 20.3041C58.6981 22.1148 58.4087 23.5801 57.8301 24.7001C57.2514 25.8014 56.4767 26.6134 55.5061 27.1361C54.5354 27.6401 53.4247 27.8921 52.1741 27.8921C50.9421 27.8921 49.8314 27.6401 48.8421 27.1361C47.8527 26.6134 47.0687 25.8014 46.4901 24.7001C45.9301 23.5801 45.6501 22.1148 45.6501 20.3041C45.6501 18.4934 45.9301 17.0281 46.4901 15.9081C47.0687 14.7881 47.8527 13.9668 48.8421 13.4441C49.8314 12.9214 50.9421 12.6601 52.1741 12.6601ZM52.1741 13.2201C51.2034 13.2201 50.4101 13.7801 49.7941 14.9001C49.1781 16.0014 48.8701 17.8028 48.8701 20.3041C48.8701 22.8054 49.1781 24.6068 49.7941 25.7081C50.4101 26.7908 51.2034 27.3321 52.1741 27.3321C53.1261 27.3321 53.9101 26.7908 54.5261 25.7081C55.1607 24.6068 55.4781 22.8054 55.4781 20.3041C55.4781 17.8028 55.1607 16.0014 54.5261 14.9001C53.9101 13.7801 53.1261 13.2201 52.1741 13.2201Z" fill="#203136"/>
<path d="M61.0818 7.6761C61.5111 7.69476 62.0618 7.71343 62.7338 7.7321C63.4245 7.75076 64.1058 7.7601 64.7778 7.7601C65.6738 7.7601 66.5231 7.75076 67.3258 7.7321C68.1471 7.71343 68.7258 7.7041 69.0618 7.7041C71.4325 7.7041 73.2058 8.21743 74.3818 9.2441C75.5578 10.2708 76.1458 11.5961 76.1458 13.2201C76.1458 13.8921 76.0245 14.6014 75.7818 15.3481C75.5578 16.0761 75.1565 16.7574 74.5778 17.3921C73.9991 18.0081 73.2151 18.5121 72.2258 18.9041C71.2365 19.2961 69.9765 19.4921 68.4458 19.4921H65.7018V18.9321H68.1658C69.4165 18.9321 70.3685 18.6801 71.0218 18.1761C71.6938 17.6721 72.1418 17.0094 72.3658 16.1881C72.6085 15.3668 72.7298 14.4801 72.7298 13.5281C72.7298 11.7548 72.4125 10.4294 71.7778 9.5521C71.1431 8.67476 70.0418 8.2361 68.4738 8.2361C67.6711 8.2361 67.1391 8.39476 66.8778 8.7121C66.6351 9.02943 66.5138 9.67343 66.5138 10.6441V24.4761C66.5138 25.1668 66.5885 25.6894 66.7378 26.0441C66.8871 26.3801 67.1671 26.6041 67.5778 26.7161C67.9885 26.8281 68.5951 26.8934 69.3978 26.9121V27.5001C68.8938 27.4628 68.2405 27.4441 67.4378 27.4441C66.6351 27.4254 65.8045 27.4161 64.9458 27.4161C64.1991 27.4161 63.4805 27.4254 62.7898 27.4441C62.1178 27.4441 61.5485 27.4628 61.0818 27.5001V26.9401C61.7165 26.9028 62.1925 26.8281 62.5098 26.7161C62.8271 26.6041 63.0325 26.3801 63.1258 26.0441C63.2378 25.7081 63.2938 25.2041 63.2938 24.5321V10.6441C63.2938 9.95343 63.2378 9.44943 63.1258 9.1321C63.0325 8.7961 62.8178 8.5721 62.4818 8.4601C62.1645 8.32943 61.6978 8.25476 61.0818 8.2361V7.6761Z" fill="#203136"/>
<path d="M82.8301 5.5481V24.8961C82.8301 25.6801 82.9795 26.2121 83.2781 26.4921C83.5955 26.7721 84.1181 26.9121 84.8461 26.9121V27.5001C84.5288 27.4814 84.0341 27.4628 83.3621 27.4441C82.6901 27.4068 82.0181 27.3881 81.3461 27.3881C80.6741 27.3881 79.9928 27.4068 79.3021 27.4441C78.6301 27.4628 78.1261 27.4814 77.7901 27.5001V26.9121C78.5181 26.9121 79.0315 26.7721 79.3301 26.4921C79.6475 26.2121 79.8061 25.6801 79.8061 24.8961V8.9081C79.8061 8.0681 79.6661 7.4521 79.3861 7.0601C79.1061 6.64943 78.5741 6.4441 77.7901 6.4441V5.8561C78.3875 5.9121 78.9661 5.9401 79.5261 5.9401C80.1421 5.9401 80.7301 5.9121 81.2901 5.8561C81.8501 5.78143 82.3635 5.67876 82.8301 5.5481Z" fill="#203136"/>
<path d="M90.6966 27.6961C89.9126 27.6961 89.2406 27.5468 88.6806 27.2481C88.1206 26.9494 87.7006 26.5388 87.4206 26.0161C87.1406 25.4934 87.0006 24.8961 87.0006 24.2241C87.0006 23.4028 87.1873 22.7401 87.5606 22.2361C87.9339 21.7134 88.4099 21.2934 88.9886 20.9761C89.5859 20.6588 90.2113 20.3974 90.8646 20.1921C91.5366 19.9681 92.1619 19.7628 92.7406 19.5761C93.3379 19.3708 93.8233 19.1374 94.1966 18.8761C94.5886 18.6148 94.7846 18.2694 94.7846 17.8401V15.9361C94.7846 15.2641 94.6726 14.7321 94.4486 14.3401C94.2433 13.9294 93.9539 13.6401 93.5806 13.4721C93.2259 13.3041 92.7966 13.2201 92.2926 13.2201C91.8633 13.2201 91.4059 13.2854 90.9206 13.4161C90.4353 13.5281 90.0526 13.7614 89.7726 14.1161C90.1833 14.2281 90.5193 14.4521 90.7806 14.7881C91.0606 15.1054 91.2006 15.5068 91.2006 15.9921C91.2006 16.5148 91.0233 16.9254 90.6686 17.2241C90.3326 17.5228 89.9033 17.6721 89.3806 17.6721C88.8019 17.6721 88.3726 17.4948 88.0926 17.1401C87.8126 16.7668 87.6726 16.3374 87.6726 15.8521C87.6726 15.3481 87.7939 14.9374 88.0366 14.6201C88.2979 14.3028 88.6339 14.0041 89.0446 13.7241C89.4926 13.4254 90.0619 13.1734 90.7526 12.9681C91.4619 12.7628 92.2459 12.6601 93.1046 12.6601C93.9073 12.6601 94.5979 12.7534 95.1766 12.9401C95.7739 13.1081 96.2686 13.3881 96.6606 13.7801C97.1273 14.2094 97.4353 14.7508 97.5846 15.4041C97.7339 16.0388 97.8086 16.8134 97.8086 17.7281V25.4561C97.8086 25.9228 97.8646 26.2588 97.9766 26.4641C98.1073 26.6508 98.3126 26.7441 98.5926 26.7441C98.7793 26.7441 98.9566 26.6974 99.1246 26.6041C99.3113 26.5108 99.5259 26.3708 99.7686 26.1841L100.049 26.6601C99.6566 26.9774 99.2553 27.2294 98.8446 27.4161C98.4526 27.6028 97.9486 27.6961 97.3326 27.6961C96.7353 27.6961 96.2499 27.6028 95.8766 27.4161C95.5033 27.2294 95.2233 26.9588 95.0366 26.6041C94.8686 26.2494 94.7846 25.8108 94.7846 25.2881C94.2993 26.0721 93.7206 26.6694 93.0486 27.0801C92.3766 27.4908 91.5926 27.6961 90.6966 27.6961ZM92.0406 26.3521C92.5633 26.3521 93.0486 26.2028 93.4966 25.9041C93.9633 25.6054 94.3926 25.1574 94.7846 24.5601V18.9881C94.5793 19.2868 94.2806 19.5481 93.8886 19.7721C93.4966 19.9774 93.0766 20.1921 92.6286 20.4161C92.1806 20.6401 91.7513 20.9014 91.3406 21.2001C90.9486 21.4801 90.6219 21.8441 90.3606 22.2921C90.0993 22.7401 89.9686 23.3094 89.9686 24.0001C89.9686 24.7281 90.1553 25.3068 90.5286 25.7361C90.9019 26.1468 91.4059 26.3521 92.0406 26.3521Z" fill="#203136"/>
<path d="M111.189 12.6601C111.936 12.6601 112.543 12.7628 113.009 12.9681C113.495 13.1548 113.896 13.4161 114.213 13.7521C114.549 14.1068 114.783 14.5641 114.913 15.1241C115.063 15.6841 115.137 16.4401 115.137 17.3921V24.8961C115.137 25.6801 115.287 26.2121 115.585 26.4921C115.903 26.7721 116.425 26.9121 117.153 26.9121V27.5001C116.836 27.4814 116.341 27.4628 115.669 27.4441C114.997 27.4068 114.335 27.3881 113.681 27.3881C113.047 27.3881 112.412 27.4068 111.777 27.4441C111.161 27.4628 110.695 27.4814 110.377 27.5001V26.9121C111.012 26.9121 111.46 26.7721 111.721 26.4921C111.983 26.2121 112.113 25.6801 112.113 24.8961V16.6081C112.113 16.0668 112.067 15.5814 111.973 15.1521C111.88 14.7041 111.684 14.3494 111.385 14.0881C111.087 13.8081 110.639 13.6681 110.041 13.6681C109.351 13.6681 108.735 13.8641 108.193 14.2561C107.671 14.6481 107.251 15.1894 106.933 15.8801C106.635 16.5521 106.485 17.3081 106.485 18.1481V24.8961C106.485 25.6801 106.616 26.2121 106.877 26.4921C107.157 26.7721 107.605 26.9121 108.221 26.9121V27.5001C107.923 27.4814 107.465 27.4628 106.849 27.4441C106.252 27.4068 105.627 27.3881 104.973 27.3881C104.339 27.3881 103.676 27.4068 102.985 27.4441C102.295 27.4628 101.781 27.4814 101.445 27.5001V26.9121C102.173 26.9121 102.687 26.7721 102.985 26.4921C103.303 26.2121 103.461 25.6801 103.461 24.8961V16.1041C103.461 15.2641 103.321 14.6481 103.041 14.2561C102.761 13.8454 102.229 13.6401 101.445 13.6401V13.0521C102.043 13.1081 102.621 13.1361 103.181 13.1361C103.816 13.1361 104.404 13.1081 104.945 13.0521C105.505 12.9774 106.019 12.8748 106.485 12.7441V15.7961C106.971 14.6388 107.633 13.8268 108.473 13.3601C109.332 12.8934 110.237 12.6601 111.189 12.6601Z" fill="#203136"/>
</svg>
